<?xml version="1.0" standalone="no"?>
<!DOCTYPE svg PUBLIC "-//W3C//DTD SVG 20010904//EN"
 "http://www.w3.org/TR/2001/REC-SVG-20010904/DTD/svg10.dtd">
<svg version="1.0" xmlns="http://www.w3.org/2000/svg"
 width="452.000000pt" height="452.000000pt" viewBox="0 0 452.000000 452.000000"
 preserveAspectRatio="xMidYMid meet">
<metadata>
Created by potrace 1.14, written by Peter Selinger 2001-2017
</metadata>
<g transform="translate(0.000000,452.000000) scale(0.100000,-0.100000)"
fill="#000000" stroke="none">
<path d="M846 3951 c-1 -3 -2 -491 -2 -1083 l1 -1078 -187 0 -188 0 0 -235 0
-235 28 -1 c15 0 100 0 188 -1 l162 0 0 -342 c0 -187 1 -357 1 -376 l1 -36
138 1 137 0 3 376 2 377 1130 0 1130 0 0 -377 0 -376 140 0 140 0 1 75 c0 41
1 211 1 376 l1 302 166 0 c91 0 176 1 189 1 l22 1 0 235 0 235 -417 0 -418 1
260 88 c143 49 268 92 277 96 16 6 16 10 -1 58 -10 29 -31 93 -45 142 -15 50
-45 144 -66 210 -21 66 -59 188 -85 270 -25 83 -50 161 -55 175 -4 14 -23 72
-40 130 -18 58 -59 188 -91 290 -32 102 -59 190 -59 195 -1 40 -16 37 -295
-54 -153 -50 -279 -91 -281 -91 -2 0 -4 20 -4 45 l0 45 -280 0 c-154 0 -280 3
-281 8 0 4 -1 130 -2 280 0 149 -3 273 -6 273 -4 1 -131 2 -283 3 l-278 3 0
-1084 0 -1083 -94 0 -93 0 -1 1068 c0 587 -1 1074 -1 1082 -1 13 -40 15 -282
16 -154 0 -281 -2 -283 -5z m1925 -787 c17 -54 37 -119 44 -144 7 -25 38 -125
69 -222 31 -98 81 -258 111 -355 31 -98 85 -272 122 -388 36 -115 69 -222 74
-237 l8 -28 -235 0 -234 0 0 742 c0 408 2 739 5 737 2 -3 19 -50 36 -105z"/>
</g>
</svg>
